<svg xmlns="http://www.w3.org/2000/svg" xmlns:xlink="http://www.w3.org/1999/xlink" width="40" zoomAndPan="magnify" viewBox="0 0 30 30.000001" height="40" preserveAspectRatio="xMidYMid meet" version="1.0"><defs><g/><clipPath id="5df4784cb6"><path d="M 0.269531 3 L 6 3 L 6 8 L 0.269531 8 Z M 0.269531 3 " clip-rule="nonzero"/></clipPath><clipPath id="bf559a52cc"><rect x="0" width="26" y="0" height="10"/></clipPath><clipPath id="b005d939e9"><path d="M 9.167969 11.761719 L 10.515625 11.761719 L 10.515625 13.109375 L 9.167969 13.109375 Z M 9.167969 11.761719 " clip-rule="nonzero"/></clipPath><clipPath id="454b046878"><path d="M 9.839844 11.761719 C 9.46875 11.761719 9.167969 12.0625 9.167969 12.433594 C 9.167969 12.808594 9.46875 13.109375 9.839844 13.109375 C 10.214844 13.109375 10.515625 12.808594 10.515625 12.433594 C 10.515625 12.0625 10.214844 11.761719 9.839844 11.761719 Z M 9.839844 11.761719 " clip-rule="nonzero"/></clipPath><clipPath id="c1ea569dc1"><path d="M 0.167969 0.761719 L 1.515625 0.761719 L 1.515625 2.109375 L 0.167969 2.109375 Z M 0.167969 0.761719 " clip-rule="nonzero"/></clipPath><clipPath id="93a5a99a49"><path d="M 0.839844 0.761719 C 0.46875 0.761719 0.167969 1.0625 0.167969 1.433594 C 0.167969 1.808594 0.46875 2.109375 0.839844 2.109375 C 1.214844 2.109375 1.515625 1.808594 1.515625 1.433594 C 1.515625 1.0625 1.214844 0.761719 0.839844 0.761719 Z M 0.839844 0.761719 " clip-rule="nonzero"/></clipPath><clipPath id="611351760f"><rect x="0" width="2" y="0" height="3"/></clipPath></defs><g transform="matrix(1, 0, 0, 1, 3, 9)"><g clip-path="url(#bf559a52cc)"><g clip-path="url(#5df4784cb6)"><g fill="#ffffff" fill-opacity="1"><g transform="translate(0.706202, 7.548389)"><g><path d="M 4.0625 -3.96875 C 4.195312 -3.945312 4.328125 -3.9375 4.453125 -3.9375 C 4.585938 -3.9375 4.734375 -3.945312 4.890625 -3.96875 C 4.703125 -3.613281 4.53125 -3.285156 4.375 -2.984375 C 4.226562 -2.679688 4.082031 -2.378906 3.9375 -2.078125 C 3.789062 -1.773438 3.640625 -1.457031 3.484375 -1.125 C 3.328125 -0.789062 3.148438 -0.414062 2.953125 0 L 1.96875 0 C 1.664062 -0.664062 1.359375 -1.320312 1.046875 -1.96875 C 0.734375 -2.625 0.398438 -3.289062 0.046875 -3.96875 C 0.191406 -3.945312 0.332031 -3.9375 0.46875 -3.9375 C 0.613281 -3.9375 0.75 -3.945312 0.875 -3.96875 C 1.132812 -3.394531 1.394531 -2.796875 1.65625 -2.171875 C 1.925781 -1.554688 2.203125 -0.957031 2.484375 -0.375 C 2.773438 -0.988281 3.046875 -1.597656 3.296875 -2.203125 C 3.554688 -2.804688 3.8125 -3.394531 4.0625 -3.96875 Z M 4.0625 -3.96875 "/></g></g></g></g><g fill="#ffffff" fill-opacity="1"><g transform="translate(5.059739, 7.548389)"><g/></g></g><g fill="#ffffff" fill-opacity="1"><g transform="translate(6.723459, 7.548389)"><g><path d="M 2.71875 0.078125 C 2.332031 0.078125 1.9375 0.0390625 1.53125 -0.03125 C 1.132812 -0.113281 0.785156 -0.226562 0.484375 -0.375 C 0.503906 -0.46875 0.515625 -0.578125 0.515625 -0.703125 C 0.515625 -0.828125 0.503906 -0.929688 0.484375 -1.015625 C 0.640625 -0.890625 0.835938 -0.78125 1.078125 -0.6875 C 1.328125 -0.601562 1.59375 -0.535156 1.875 -0.484375 C 2.164062 -0.441406 2.441406 -0.421875 2.703125 -0.421875 C 3.171875 -0.421875 3.53125 -0.476562 3.78125 -0.59375 C 4.039062 -0.71875 4.171875 -0.898438 4.171875 -1.140625 C 4.171875 -1.316406 4.097656 -1.445312 3.953125 -1.53125 C 3.816406 -1.625 3.640625 -1.679688 3.421875 -1.703125 C 3.203125 -1.734375 2.957031 -1.75 2.6875 -1.75 C 2.414062 -1.757812 2.144531 -1.773438 1.875 -1.796875 C 1.601562 -1.816406 1.351562 -1.859375 1.125 -1.921875 C 0.90625 -1.984375 0.726562 -2.085938 0.59375 -2.234375 C 0.457031 -2.378906 0.390625 -2.582031 0.390625 -2.84375 C 0.390625 -3.070312 0.441406 -3.257812 0.546875 -3.40625 C 0.648438 -3.550781 0.785156 -3.664062 0.953125 -3.75 C 1.117188 -3.84375 1.300781 -3.910156 1.5 -3.953125 C 1.707031 -4.003906 1.910156 -4.035156 2.109375 -4.046875 C 2.304688 -4.054688 2.488281 -4.0625 2.65625 -4.0625 C 3.050781 -4.0625 3.398438 -4.03125 3.703125 -3.96875 C 4.015625 -3.914062 4.335938 -3.835938 4.671875 -3.734375 C 4.648438 -3.648438 4.640625 -3.554688 4.640625 -3.453125 C 4.640625 -3.347656 4.65625 -3.234375 4.6875 -3.109375 C 4.40625 -3.242188 4.09375 -3.351562 3.75 -3.4375 C 3.40625 -3.53125 3.03125 -3.578125 2.625 -3.578125 C 2.113281 -3.578125 1.734375 -3.519531 1.484375 -3.40625 C 1.234375 -3.289062 1.109375 -3.101562 1.109375 -2.84375 C 1.109375 -2.65625 1.175781 -2.515625 1.3125 -2.421875 C 1.457031 -2.328125 1.640625 -2.265625 1.859375 -2.234375 C 2.085938 -2.203125 2.335938 -2.179688 2.609375 -2.171875 C 2.878906 -2.171875 3.144531 -2.164062 3.40625 -2.15625 C 3.675781 -2.144531 3.925781 -2.109375 4.15625 -2.046875 C 4.382812 -1.984375 4.566406 -1.878906 4.703125 -1.734375 C 4.835938 -1.585938 4.90625 -1.382812 4.90625 -1.125 C 4.90625 -0.695312 4.707031 -0.390625 4.3125 -0.203125 C 3.925781 -0.015625 3.394531 0.078125 2.71875 0.078125 Z M 2.71875 0.078125 "/></g></g></g><g fill="#ffffff" fill-opacity="1"><g transform="translate(11.403936, 7.548389)"><g><path d="M 2.84375 0.078125 C 2.070312 0.078125 1.46875 -0.101562 1.03125 -0.46875 C 0.59375 -0.832031 0.375 -1.347656 0.375 -2.015625 C 0.375 -2.648438 0.59375 -3.148438 1.03125 -3.515625 C 1.46875 -3.878906 2.070312 -4.0625 2.84375 -4.0625 C 3.625 -4.0625 4.226562 -3.878906 4.65625 -3.515625 C 5.09375 -3.148438 5.3125 -2.648438 5.3125 -2.015625 C 5.3125 -1.347656 5.09375 -0.832031 4.65625 -0.46875 C 4.226562 -0.101562 3.625 0.078125 2.84375 0.078125 Z M 2.84375 -0.390625 C 3.382812 -0.390625 3.804688 -0.53125 4.109375 -0.8125 C 4.421875 -1.09375 4.578125 -1.492188 4.578125 -2.015625 C 4.578125 -2.492188 4.421875 -2.867188 4.109375 -3.140625 C 3.804688 -3.421875 3.382812 -3.5625 2.84375 -3.5625 C 2.289062 -3.5625 1.863281 -3.421875 1.5625 -3.140625 C 1.257812 -2.867188 1.109375 -2.492188 1.109375 -2.015625 C 1.109375 -1.492188 1.257812 -1.09375 1.5625 -0.8125 C 1.863281 -0.53125 2.289062 -0.390625 2.84375 -0.390625 Z M 2.84375 -0.390625 "/></g></g></g><g fill="#ffffff" fill-opacity="1"><g transform="translate(16.522811, 7.548389)"><g><path d="M 1.453125 0 L 0.625 0 C 0.71875 -1.3125 0.71875 -2.613281 0.625 -3.90625 C 0.769531 -3.914062 0.914062 -3.929688 1.0625 -3.953125 C 1.207031 -3.972656 1.328125 -4 1.421875 -4.03125 C 1.398438 -3.757812 1.378906 -3.492188 1.359375 -3.234375 C 1.347656 -2.972656 1.335938 -2.703125 1.328125 -2.421875 L 1.390625 -2.421875 C 1.503906 -2.859375 1.675781 -3.195312 1.90625 -3.4375 C 2.144531 -3.675781 2.40625 -3.835938 2.6875 -3.921875 C 2.976562 -4.015625 3.253906 -4.046875 3.515625 -4.015625 C 3.460938 -3.796875 3.460938 -3.546875 3.515625 -3.265625 C 3.335938 -3.316406 3.171875 -3.34375 3.015625 -3.34375 C 2.734375 -3.34375 2.46875 -3.28125 2.21875 -3.15625 C 1.976562 -3.039062 1.78125 -2.847656 1.625 -2.578125 C 1.46875 -2.304688 1.390625 -1.953125 1.390625 -1.515625 C 1.390625 -1.253906 1.390625 -1 1.390625 -0.75 C 1.398438 -0.507812 1.421875 -0.257812 1.453125 0 Z M 1.453125 0 "/></g></g></g><g fill="#ffffff" fill-opacity="1"><g transform="translate(19.605743, 7.548389)"><g><path d="M 5.1875 0 L 4.453125 0 C 4.390625 -0.164062 4.34375 -0.332031 4.3125 -0.5 C 4.28125 -0.664062 4.257812 -0.828125 4.25 -0.984375 C 4.101562 -0.785156 3.925781 -0.601562 3.71875 -0.4375 C 3.519531 -0.269531 3.28125 -0.132812 3 -0.03125 C 2.71875 0.0625 2.382812 0.109375 2 0.109375 C 1.457031 0.109375 1.0625 0.00390625 0.8125 -0.203125 C 0.570312 -0.421875 0.453125 -0.679688 0.453125 -0.984375 C 0.453125 -1.359375 0.632812 -1.644531 1 -1.84375 C 1.375 -2.050781 1.921875 -2.15625 2.640625 -2.15625 L 4.234375 -2.15625 C 4.222656 -2.4375 4.175781 -2.679688 4.09375 -2.890625 C 4.007812 -3.097656 3.851562 -3.257812 3.625 -3.375 C 3.40625 -3.488281 3.078125 -3.546875 2.640625 -3.546875 C 2.203125 -3.546875 1.796875 -3.484375 1.421875 -3.359375 C 1.054688 -3.234375 0.769531 -3.078125 0.5625 -2.890625 C 0.570312 -2.984375 0.578125 -3.09375 0.578125 -3.21875 C 0.578125 -3.351562 0.570312 -3.46875 0.5625 -3.5625 C 0.820312 -3.695312 1.132812 -3.8125 1.5 -3.90625 C 1.863281 -4.007812 2.28125 -4.0625 2.75 -4.0625 C 3.476562 -4.0625 4.019531 -3.925781 4.375 -3.65625 C 4.738281 -3.394531 4.921875 -2.9375 4.921875 -2.28125 C 4.929688 -1.976562 4.9375 -1.703125 4.9375 -1.453125 C 4.945312 -1.203125 4.972656 -0.957031 5.015625 -0.71875 C 5.054688 -0.488281 5.113281 -0.25 5.1875 0 Z M 2.34375 -0.40625 C 2.769531 -0.40625 3.140625 -0.472656 3.453125 -0.609375 C 3.765625 -0.753906 4.023438 -0.925781 4.234375 -1.125 C 4.234375 -1.25 4.234375 -1.367188 4.234375 -1.484375 C 4.234375 -1.609375 4.234375 -1.722656 4.234375 -1.828125 L 4.234375 -1.90625 L 3.171875 -1.90625 C 2.773438 -1.90625 2.429688 -1.878906 2.140625 -1.828125 C 1.847656 -1.785156 1.625 -1.707031 1.46875 -1.59375 C 1.3125 -1.488281 1.234375 -1.332031 1.234375 -1.125 C 1.234375 -0.882812 1.332031 -0.703125 1.53125 -0.578125 C 1.726562 -0.460938 2 -0.40625 2.34375 -0.40625 Z M 2.34375 -0.40625 "/></g></g></g></g></g><path stroke-linecap="butt" transform="matrix(0.304391, -0.658894, 0.658894, 0.304391, 7.586888, 16.44357)" fill="none" stroke-linejoin="miter" d="M -0.00142078 0.503135 L 6.317312 0.500877 " stroke="#00c480" stroke-width="1" stroke-opacity="1" stroke-miterlimit="4"/><g clip-path="url(#b005d939e9)"><g clip-path="url(#454b046878)"><g transform="matrix(1, 0, 0, 1, 9, 11)"><g clip-path="url(#611351760f)"><g clip-path="url(#c1ea569dc1)"><g clip-path="url(#93a5a99a49)"><path fill="#00c480" d="M 0.167969 0.761719 L 1.515625 0.761719 L 1.515625 2.109375 L 0.167969 2.109375 Z M 0.167969 0.761719 " fill-opacity="1" fill-rule="nonzero"/></g></g></g></g></g></g></svg>