<svg xmlns="http://www.w3.org/2000/svg" xmlns:xlink="http://www.w3.org/1999/xlink" width="40" zoomAndPan="magnify" viewBox="0 0 30 30.000001" height="40" preserveAspectRatio="xMidYMid meet" version="1.0"><defs><clipPath id="bec92db8e6"><path d="M 13 1.160156 L 29.515625 1.160156 L 29.515625 25.839844 L 13 25.839844 Z M 13 1.160156 " clip-rule="nonzero"/></clipPath><clipPath id="c79f4d6ad7"><path d="M 0.484375 1.160156 L 15 1.160156 L 15 14 L 0.484375 14 Z M 0.484375 1.160156 " clip-rule="nonzero"/></clipPath></defs><g clip-path="url(#bec92db8e6)"><path fill="#00c480" d="M 14.960938 13.640625 L 22.164062 1.160156 L 29.367188 1.160156 L 14.960938 26.125 C 14.410156 25.175781 13.996094 24.171875 13.710938 23.113281 C 13.429688 22.054688 13.285156 20.980469 13.285156 19.882812 C 13.285156 18.789062 13.429688 17.710938 13.710938 16.652344 C 13.996094 15.59375 14.410156 14.589844 14.960938 13.640625 Z M 14.960938 13.640625 " fill-opacity="1" fill-rule="nonzero"/></g><g clip-path="url(#c79f4d6ad7)"><path fill="#7ed957" d="M 0.546875 1.160156 L 14.960938 1.160156 L 7.753906 13.644531 Z M 0.546875 1.160156 " fill-opacity="1" fill-rule="nonzero"/></g></svg>